<svg viewBox="0 0 167 34" fill="none" xmlns="http://www.w3.org/2000/svg">
<path d="M143.322 7.32031C147.771 10.4454 154.37 12.9493 160.349 15.0697C154.493 13.2626 148.261 13.0472 142.293 14.4457C139.186 12.7533 136.81 11.1317 135.168 9.58099C137.801 8.54571 140.536 7.78805 143.326 7.32031" fill="#AA1916"/>
<path d="M135.071 9.28853C134.412 7.24698 133.838 5.14663 133.355 2.98082C135.449 2.20904 137.595 1.58401 139.775 1.11029C146.632 -0.370096 153.725 -0.370096 160.581 1.11029C162.762 1.58401 164.907 2.20904 167.001 2.98082C166.518 5.14173 165.946 7.2443 165.285 9.28853L165.191 9.5798C155.538 5.80489 144.818 5.80489 135.166 9.5798L135.071 9.28853Z" fill="#E30619"/>
<path d="M162.751 15.9134C161.93 17.7563 161.035 19.5266 160.068 21.2243L159.627 21.9846C153.523 19.7622 146.831 19.7622 140.727 21.9846L140.286 21.2257C139.321 19.5333 138.426 17.763 137.602 15.9147C145.684 12.742 154.668 12.742 162.751 15.9147" fill="#E30619"/>
<path d="M147.606 20.4363C149.654 23.5444 152.023 26.4288 154.674 29.0421C153.287 30.7111 151.784 32.28 150.175 33.7371C148.531 32.2462 146.996 30.6387 145.583 28.9272C145.022 28.2502 144.475 27.5519 143.941 26.8322C143.275 25.9414 142.631 25.0151 142.009 24.0531C141.569 23.377 141.142 22.6867 140.727 21.9821C142.943 21.1707 145.256 20.6502 147.606 20.4336" fill="#AA1916"/>
<path d="M50.7221 7.46094H45.3203V12.7399H50.7221V7.46094Z" fill="#E30619"/>
<path d="M115.855 0.0195312H110.453V5.29845H115.855V0.0195312Z" fill="#E30619"/>
<path d="M45.3043 14.2291C45.3124 15.3114 45.295 14.9533 45.279 18.4646C45.2629 22.0159 40.0682 22.1482 39.825 18.4646C39.825 18.4338 39.8437 8.89946 39.8437 8.89946H34.3657V14.181H34.3564L34.3657 14.9373V18.0985C34.3377 19.8287 32.9922 21.245 31.25 21.245C20.2859 21.245 10.2131 21.2183 10.2131 21.2183C8.00589 21.2183 5.42188 19.4292 5.42188 17.222L5.43123 8.85938H0.0120249L0 17.6776C0 20.0475 0.941449 22.3204 2.61724 23.9962C4.29303 25.672 6.56589 26.6134 8.93581 26.6134H30.447C32.7526 26.6138 34.9769 25.7615 36.6919 24.2205L36.7279 24.1497C37.897 25.3602 39.6433 26.3716 42.2514 26.5546C49.3848 26.3048 50.6287 20.4901 50.6541 19.3624C50.6901 17.723 50.7195 14.2372 50.7195 14.2372L45.3043 14.2291Z" fill="white"/>
<path d="M25.3576 7.40234H13.457V12.6813H25.3576V7.40234Z" fill="#E30619"/>
<path d="M120.95 14.8346C120.95 14.7491 120.95 14.6649 120.95 14.5794C120.95 13.1952 120.581 11.836 119.882 10.6417C119.182 9.44744 118.177 8.46122 116.969 7.78465C115.762 7.10807 114.396 6.76559 113.012 6.79247C111.628 6.81935 110.276 7.21463 109.096 7.93759C107.916 8.66055 106.949 9.68507 106.297 10.9056C105.644 12.1262 105.328 13.4987 105.382 14.8818C105.436 16.2649 105.858 17.6086 106.604 18.7745C107.35 19.9404 108.393 20.8864 109.626 21.5151H106.754C106.464 21.5151 106.155 21.5044 105.887 21.499C105.394 21.471 103.814 20.9472 103.725 18.7186C103.754 16.8 103.782 13.9247 103.782 13.9247C103.782 13.9247 100.355 13.9247 98.3578 13.9247C98.3725 15.0083 98.3698 13.6976 98.3284 18.8682C98.2255 22.4183 93.1176 22.5532 92.8745 18.8682C92.8745 18.6692 92.8932 1.53507 92.8959 0.106786V0.00390625H87.3965L87.4165 6.8848V18.8629C87.1787 22.5479 82.0721 22.4129 81.9626 18.8629C81.9626 17.0391 81.9626 15.5507 81.9546 14.3295H81.9639L81.9479 8.93304H81.4428L75.9648 8.92502L62.1282 8.90631C55.0042 9.38998 54.288 16.0985 54.288 16.0985L54.2266 26.6203H59.7046C59.7046 26.6203 59.7046 17.1941 59.7046 16.987C59.9277 13.5412 64.4116 13.437 65.077 16.3404C65.1064 17.639 65.1318 18.8001 65.1451 19.3492C65.1705 20.4782 66.4131 26.2969 73.5478 26.5414C75.8847 26.3838 77.5334 25.5554 78.6918 24.5133C79.9464 25.8493 81.9185 26.9369 84.9942 26.9436C87.339 26.7846 88.9891 25.9509 90.1488 24.9047C91.3086 25.9509 92.9546 26.7846 95.3022 26.9436C97.9303 26.9436 99.7527 26.142 101.01 25.0731C101.837 25.8707 103.428 26.5922 105.179 26.5922C111.436 26.6029 113.462 26.6403 113.462 26.6403C117.122 26.4974 120.688 24.1939 120.945 19.3158C121.05 17.2729 120.95 14.8346 120.95 14.8346ZM75.9702 18.4621C75.7471 21.9065 71.2631 22.0121 70.5978 19.1087C70.5684 17.8101 70.543 16.649 70.5296 16.0985C70.5296 16.0437 70.5296 15.9743 70.5163 15.8981V14.3295H75.9702V18.4621ZM113.182 17.5468C112.598 17.5468 112.027 17.3737 111.542 17.0494C111.057 16.7251 110.678 16.2642 110.455 15.7249C110.232 15.1856 110.173 14.5921 110.287 14.0196C110.401 13.4471 110.682 12.9212 111.095 12.5084C111.508 12.0957 112.033 11.8146 112.606 11.7007C113.179 11.5868 113.772 11.6453 114.311 11.8686C114.851 12.092 115.312 12.4703 115.636 12.9557C115.96 13.441 116.133 14.0117 116.133 14.5954C116.133 15.3782 115.822 16.1289 115.269 16.6824C114.715 17.2359 113.965 17.5468 113.182 17.5468Z" fill="white"/>
<path d="M102.979 28.5703H91.0781V33.8492H102.979V28.5703Z" fill="#E30619"/>
</svg>
